<svg xmlns="http://www.w3.org/2000/svg" width="1920" height="1080" viewBox="0 0 1920 1080">
  <defs>
    <linearGradient id="bg-gradient" x1="0%" y1="0%" x2="100%" y2="100%">
      <stop offset="0%" stop-color="#0a2540" />
      <stop offset="100%" stop-color="#1c1c1e" />
    </linearGradient>
    <radialGradient id="petri-gradient" cx="50%" cy="50%" r="50%" fx="50%" fy="50%">
      <stop offset="0%" stop-color="#00c2cb" stop-opacity="0.3" />
      <stop offset="100%" stop-color="#0a2540" stop-opacity="0" />
    </radialGradient>
    <filter id="blur" x="-50%" y="-50%" width="200%" height="200%">
      <feGaussianBlur in="SourceGraphic" stdDeviation="10" />
    </filter>
  </defs>
  
  <!-- Background -->
  <rect width="100%" height="100%" fill="url(#bg-gradient)" />
  
  <!-- Lab Equipment Silhouettes -->
  <!-- Microscope -->
  <path d="M800,300 L850,300 L870,500 L830,550 L780,500 Z" fill="#3a3a3c" opacity="0.5" />
  <circle cx="825" cy="280" r="30" fill="#3a3a3c" opacity="0.5" />
  <rect x="790" y="550" width="70" height="20" fill="#3a3a3c" opacity="0.5" />
  <rect x="810" y="570" width="30" height="100" fill="#3a3a3c" opacity="0.5" />
  <rect x="780" y="670" width="90" height="10" fill="#3a3a3c" opacity="0.5" />
  
  <!-- Flask -->
  <path d="M1200,400 L1230,400 L1230,450 L1280,550 L1150,550 L1200,450 Z" fill="#3a3a3c" opacity="0.5" />
  <rect x="1205" y="350" width="20" height="50" fill="#3a3a3c" opacity="0.5" />
  <circle cx="1215" cy="500" r="40" fill="#00c2cb" opacity="0.1" filter="url(#blur)" />
  
  <!-- Test Tubes -->
  <rect x="500" y="400" width="15" height="150" rx="7.5" fill="#3a3a3c" opacity="0.5" />
  <rect x="530" y="400" width="15" height="150" rx="7.5" fill="#3a3a3c" opacity="0.5" />
  <rect x="560" y="400" width="15" height="150" rx="7.5" fill="#3a3a3c" opacity="0.5" />
  <circle cx="507.5" cy="520" r="10" fill="#ff453a" opacity="0.2" filter="url(#blur)" />
  <circle cx="537.5" cy="520" r="10" fill="#00d68f" opacity="0.2" filter="url(#blur)" />
  <circle cx="567.5" cy="520" r="10" fill="#bf5af2" opacity="0.2" filter="url(#blur)" />
  
  <!-- Petri Dishes -->
  <circle cx="960" cy="540" r="300" fill="url(#petri-gradient)" filter="url(#blur)" />
  
  <!-- DNA Helix -->
  <path d="M1500,200 Q1550,250 1500,300 Q1450,350 1500,400 Q1550,450 1500,500 Q1450,550 1500,600" 
        stroke="#00c2cb" stroke-width="3" fill="none" opacity="0.3" />
  <path d="M1600,200 Q1550,250 1600,300 Q1650,350 1600,400 Q1550,450 1600,500 Q1650,550 1600,600" 
        stroke="#00c2cb" stroke-width="3" fill="none" opacity="0.3" />
  
  <!-- Connecting lines -->
  <line x1="1500" y1="220" x2="1600" y2="220" stroke="#00c2cb" stroke-width="2" opacity="0.3" />
  <line x1="1500" y1="260" x2="1600" y2="260" stroke="#00c2cb" stroke-width="2" opacity="0.3" />
  <line x1="1500" y1="340" x2="1600" y2="340" stroke="#00c2cb" stroke-width="2" opacity="0.3" />
  <line x1="1500" y1="380" x2="1600" y2="380" stroke="#00c2cb" stroke-width="2" opacity="0.3" />
  <line x1="1500" y1="460" x2="1600" y2="460" stroke="#00c2cb" stroke-width="2" opacity="0.3" />
  <line x1="1500" y1="500" x2="1600" y2="500" stroke="#00c2cb" stroke-width="2" opacity="0.3" />
  <line x1="1500" y1="580" x2="1600" y2="580" stroke="#00c2cb" stroke-width="2" opacity="0.3" />
  
  <!-- Yeast Cell Outlines -->
  <circle cx="300" cy="300" r="40" stroke="#00c2cb" stroke-width="1" fill="none" opacity="0.4" />
  <circle cx="400" cy="350" r="35" stroke="#00c2cb" stroke-width="1" fill="none" opacity="0.4" />
  <circle cx="350" cy="400" r="45" stroke="#00c2cb" stroke-width="1" fill="none" opacity="0.4" />
  <circle cx="250" cy="380" r="30" stroke="#00c2cb" stroke-width="1" fill="none" opacity="0.4" />
  
  <!-- Grid Pattern -->
  <path d="M0,0 L1920,0 L1920,1080 L0,1080 Z" stroke="#00c2cb" stroke-width="0.5" fill="none" opacity="0.05" stroke-dasharray="30" />
  <path d="M0,0 L1920,1080 M1920,0 L0,1080" stroke="#00c2cb" stroke-width="0.5" fill="none" opacity="0.05" />
  
  <!-- Particles -->
  <g opacity="0.3">
    <circle cx="100" cy="100" r="2" fill="#00c2cb" />
    <circle cx="500" cy="200" r="2" fill="#00c2cb" />
    <circle cx="900" cy="300" r="2" fill="#00c2cb" />
    <circle cx="1300" cy="150" r="2" fill="#00c2cb" />
    <circle cx="1700" cy="250" r="2" fill="#00c2cb" />
    <circle cx="300" cy="600" r="2" fill="#00c2cb" />
    <circle cx="700" cy="700" r="2" fill="#00c2cb" />
    <circle cx="1100" cy="800" r="2" fill="#00c2cb" />
    <circle cx="1500" cy="900" r="2" fill="#00c2cb" />
    <circle cx="1800" cy="700" r="2" fill="#00c2cb" />
  </g>
</svg>