<svg xmlns="http://www.w3.org/2000/svg" width="800" height="800" viewBox="0 0 800 800">
  <defs>
    <linearGradient id="bg-gradient" x1="0%" y1="0%" x2="100%" y2="100%">
      <stop offset="0%" stop-color="#0a2540" />
      <stop offset="100%" stop-color="#1c1c1e" />
    </linearGradient>
    <radialGradient id="glow" cx="50%" cy="50%" r="50%" fx="50%" fy="50%">
      <stop offset="0%" stop-color="#00c2cb" stop-opacity="0.2" />
      <stop offset="100%" stop-color="#0a2540" stop-opacity="0" />
    </radialGradient>
    <filter id="blur" x="-50%" y="-50%" width="200%" height="200%">
      <feGaussianBlur in="SourceGraphic" stdDeviation="5" />
    </filter>
  </defs>
  
  <!-- Background -->
  <rect width="100%" height="100%" fill="url(#bg-gradient)" />
  
  <!-- Lab Coat Silhouette -->
  <path d="M400,180 
           C450,180 490,220 490,270
           L490,550
           C490,550 520,650 520,700
           L280,700
           C280,650 310,550 310,550
           L310,270
           C310,220 350,180 400,180 Z" 
        fill="#f5f5f7" opacity="0.9" />
  
  <!-- Lab Coat Collar -->
  <path d="M400,180 
           C450,180 490,220 490,270
           L490,320
           L440,280
           L400,320
           L360,280
           L310,320
           L310,270
           C310,220 350,180 400,180 Z" 
        fill="#e0e0e2" opacity="0.9" />
  
  <!-- Head Silhouette -->
  <circle cx="400" cy="150" r="70" fill="#e0c8a0" />
  
  <!-- Hair -->
  <path d="M400,80 
           C450,80 480,110 480,150
           C480,170 470,190 450,200
           L450,160
           C450,160 430,180 400,180
           C370,180 350,160 350,160
           L350,200
           C330,190 320,170 320,150
           C320,110 350,80 400,80 Z" 
        fill="#5a3825" />
  
  <!-- Face Features -->
  <!-- Eyes -->
  <ellipse cx="370" cy="140" rx="10" ry="5" fill="#3a3a3c" />
  <ellipse cx="430" cy="140" rx="10" ry="5" fill="#3a3a3c" />
  
  <!-- Eyebrows -->
  <path d="M360,130 C370,125 380,125 390,130" stroke="#5a3825" stroke-width="2" fill="none" />
  <path d="M410,130 C420,125 430,125 440,130" stroke="#5a3825" stroke-width="2" fill="none" />
  
  <!-- Nose -->
  <path d="M400,145 L405,160 L395,160 Z" fill="#e0c090" />
  
  <!-- Mouth -->
  <path d="M380,170 C390,175 410,175 420,170" stroke="#c05050" stroke-width="2" fill="none" />
  
  <!-- Glasses -->
  <rect x="360" y="135" width="20" height="10" rx="5" fill="none" stroke="#3a3a3c" stroke-width="2" />
  <rect x="420" y="135" width="20" height="10" rx="5" fill="none" stroke="#3a3a3c" stroke-width="2" />
  <line x1="380" y1="140" x2="420" y2="140" stroke="#3a3a3c" stroke-width="2" />
  
  <!-- Lab Coat Details -->
  <!-- Buttons -->
  <circle cx="400" cy="350" r="5" fill="#3a3a3c" />
  <circle cx="400" cy="400" r="5" fill="#3a3a3c" />
  <circle cx="400" cy="450" r="5" fill="#3a3a3c" />
  <circle cx="400" cy="500" r="5" fill="#3a3a3c" />
  
  <!-- Pocket -->
  <rect x="330" y="350" width="40" height="50" rx="5" stroke="#e0e0e2" stroke-width="2" fill="none" />
  <rect x="430" y="350" width="40" height="50" rx="5" stroke="#e0e0e2" stroke-width="2" fill="none" />
  
  <!-- Pen in Pocket -->
  <rect x="340" y="355" width="5" height="30" fill="#3a3a3c" />
  <rect x="350" y="355" width="5" height="30" fill="#ff453a" />
  
  <!-- ID Badge -->
  <rect x="440" y="360" width="20" height="30" fill="#f5f5f7" stroke="#3a3a3c" stroke-width="1" />
  <circle cx="450" cy="370" r="5" fill="#00c2cb" />
  <line x1="440" y1="380" x2="460" y2="380" stroke="#3a3a3c" stroke-width="1" />
  <line x1="440" y1="385" x2="460" y2="385" stroke="#3a3a3c" stroke-width="1" />
  
  <!-- Arms -->
  <path d="M310,320 L250,450" stroke="#f5f5f7" stroke-width="40" stroke-linecap="round" />
  <path d="M490,320 L550,450" stroke="#f5f5f7" stroke-width="40" stroke-linecap="round" />
  
  <!-- Hands -->
  <circle cx="250" cy="450" r="25" fill="#e0c8a0" />
  <circle cx="550" cy="450" r="25" fill="#e0c8a0" />
  
  <!-- Holding a Flask -->
  <path d="M250,450 L280,500 L220,500 Z" fill="none" stroke="#3a3a3c" stroke-width="2" />
  <path d="M240,450 L240,500" fill="none" stroke="#3a3a3c" stroke-width="2" />
  <path d="M260,450 L260,500" fill="none" stroke="#3a3a3c" stroke-width="2" />
  <circle cx="250" cy="480" r="15" fill="#00c2cb" opacity="0.3" filter="url(#blur)" />
  
  <!-- Holding a Tablet -->
  <rect x="520" y="430" width="60" height="40" rx="5" fill="#3a3a3c" />
  <rect x="525" y="435" width="50" height="30" rx="2" fill="#0a84ff" opacity="0.7" />
  
  <!-- Microscope on Side -->
  <path d="M600,600 L650,600 L670,700 L630,720 L580,700 Z" fill="#3a3a3c" opacity="0.7" />
  <circle cx="625" cy="580" r="20" fill="#3a3a3c" opacity="0.7" />
  <rect x="590" y="720" width="70" height="10" fill="#3a3a3c" opacity="0.7" />
  
  <!-- Yeast Cell Visualization -->
  <circle cx="150" cy="600" r="100" fill="url(#glow)" filter="url(#blur)" />
  <circle cx="150" cy="600" r="80" stroke="#00c2cb" stroke-width="1" fill="none" opacity="0.7" />
  <circle cx="120" cy="580" r="20" stroke="#00c2cb" stroke-width="1" fill="#00c2cb" opacity="0.2" />
  <circle cx="170" cy="620" r="25" stroke="#00c2cb" stroke-width="1" fill="#00c2cb" opacity="0.2" />
  <circle cx="180" cy="570" r="15" stroke="#00c2cb" stroke-width="1" fill="#00c2cb" opacity="0.2" />
  
  <!-- Data Visualization -->
  <line x1="100" y1="400" x2="200" y2="400" stroke="#00c2cb" stroke-width="1" opacity="0.7" />
  <line x1="100" y1="400" x2="100" y2="300" stroke="#00c2cb" stroke-width="1" opacity="0.7" />
  <path d="M100,380 L120,360 L140,370 L160,330 L180,350 L200,320" fill="none" stroke="#00c2cb" stroke-width="2" opacity="0.7" />
  <circle cx="120" cy="360" r="3" fill="#00c2cb" opacity="0.7" />
  <circle cx="140" cy="370" r="3" fill="#00c2cb" opacity="0.7" />
  <circle cx="160" cy="330" r="3" fill="#00c2cb" opacity="0.7" />
  <circle cx="180" cy="350" r="3" fill="#00c2cb" opacity="0.7" />
  <circle cx="200" cy="320" r="3" fill="#00c2cb" opacity="0.7" />
  
  <!-- Glow Effect -->
  <circle cx="400" cy="400" r="300" fill="url(#glow)" filter="url(#blur)" />
</svg>